<?xml version="1.0" standalone="no"?>
<!DOCTYPE svg PUBLIC "-//W3C//DTD SVG 20010904//EN"
 "http://www.w3.org/TR/2001/REC-SVG-20010904/DTD/svg10.dtd">
<svg version="1.0" xmlns="http://www.w3.org/2000/svg"
 width="430.000000pt" height="430.000000pt" viewBox="0 0 430.000000 430.000000"
 preserveAspectRatio="xMidYMid meet">
<metadata>
Created by potrace 1.16, written by Peter Selinger 2001-2019
</metadata>
<g transform="translate(0.000000,430.000000) scale(0.100000,-0.100000)"
fill="#000000" stroke="none">
<path d="M1820 3273 c-230 -35 -339 -66 -500 -140 -47 -22 -101 -46 -120 -53
-54 -20 -61 -32 -15 -26 30 4 34 3 15 -3 -14 -5 -37 -9 -51 -10 -14 -1 -36
-12 -49 -26 l-23 -25 25 0 c14 0 51 9 82 20 l57 19 -21 -28 c-11 -16 -20 -32
-20 -35 0 -13 51 -5 105 15 31 12 58 19 61 16 2 -2 0 -16 -5 -31 -9 -22 -8
-26 7 -27 37 -3 62 5 187 55 197 80 263 98 415 112 l74 6 -23 19 c-13 11 -33
19 -45 19 -16 0 -18 2 -7 9 23 15 4 29 -48 36 -38 5 -48 10 -44 21 4 10 -2 17
-15 20 -13 4 -18 12 -15 25 3 10 4 18 2 18 -2 -1 -15 -3 -29 -6z"/>
<path d="M2425 3243 c-156 -4 -440 -25 -460 -34 -12 -5 93 -6 252 -3 208 5
280 4 303 -6 16 -7 30 -16 30 -21 0 -4 39 -27 88 -50 48 -23 110 -57 137 -75
28 -18 82 -45 120 -59 113 -43 267 -95 281 -95 9 0 14 -12 14 -32 0 -18 4 -39
9 -46 12 -20 19 25 20 142 2 90 1 98 -14 86 -21 -17 -75 -1 -175 52 -223 120
-237 125 -377 133 -59 3 -117 7 -128 8 -11 1 -56 1 -100 0z"/>
<path d="M3389 2878 c-91 -66 -122 -96 -116 -112 10 -26 35 -30 100 -13 94 23
339 13 485 -20 l74 -17 17 23 c10 13 24 46 31 73 15 61 8 68 -56 58 -55 -9
-213 -3 -274 10 -25 5 -67 11 -95 15 -27 3 -66 8 -85 11 -28 4 -44 -2 -81 -28z"/>
<path d="M2761 2030 c-11 -3 -30 -14 -43 -26 -13 -11 -29 -19 -35 -17 -7 3
-25 -3 -42 -11 -16 -9 -43 -16 -59 -16 -16 0 -35 -6 -41 -14 -13 -15 -78 -37
-171 -57 -30 -6 -59 -15 -65 -19 -14 -9 -117 -15 -260 -14 -156 2 -362 37
-437 75 -10 5 -27 9 -37 9 -11 0 -22 4 -25 9 -7 11 -68 12 -84 2 -6 -4 -14
-27 -17 -51 -3 -24 -11 -47 -17 -51 -15 -9 -35 6 -43 32 -4 10 -13 19 -21 19
-8 0 -14 8 -15 18 0 10 -3 12 -6 4 -2 -6 -9 -10 -14 -6 -24 14 -7 -13 39 -61
12 -13 22 -29 22 -35 0 -5 5 -10 10 -10 6 0 14 -9 18 -19 21 -58 270 -300 414
-404 46 -33 118 -77 161 -98 66 -32 86 -37 129 -34 110 8 305 136 509 332 159
153 232 245 296 368 5 11 15 30 21 42 8 16 9 24 1 29 -13 8 -159 11 -188 4z"/>
<path d="M3287 1149 c-9 -6 -22 -7 -27 -4 -5 3 -65 -21 -132 -54 -287 -140
-617 -210 -770 -163 -32 10 -60 20 -63 23 -3 4 24 25 61 49 62 40 84 64 71 77
-4 3 -39 -6 -79 -20 -98 -34 -260 -75 -488 -121 -162 -33 -504 -90 -617 -104
-79 -9 -105 -3 -134 31 -20 22 -20 22 -16 -126 2 -81 2 -145 -1 -142 -3 3 -20
-6 -38 -20 -18 -14 -43 -25 -56 -25 -19 0 -20 2 -8 11 13 9 13 11 0 16 -8 3
-33 25 -55 49 -38 41 -76 56 -89 35 -6 -10 -73 -26 -93 -22 -7 1 -13 -3 -13
-9 0 -11 -242 -15 -253 -4 -6 6 -26 9 -100 17 -22 2 -87 65 -87 83 0 21 -18
17 -25 -6 -10 -32 3 -110 29 -166 39 -85 50 -88 279 -74 215 14 281 10 358
-21 104 -41 190 -1 204 94 7 46 8 47 44 47 20 0 91 7 156 15 66 9 149 18 185
21 36 3 154 18 263 35 109 16 224 31 256 32 33 1 57 5 55 8 -2 3 43 16 99 29
56 13 128 32 161 42 32 11 65 17 73 14 8 -3 11 -2 8 4 -6 9 47 22 96 24 15 1
25 4 23 7 -2 3 31 15 73 27 59 16 79 18 85 9 6 -9 8 -9 8 2 0 8 7 11 20 8 11
-3 18 -1 14 4 -3 5 1 9 8 9 8 0 67 18 133 39 65 22 123 37 128 34 6 -3 7 -2 4
4 -6 9 32 33 53 33 10 0 125 66 159 92 13 10 28 15 35 11 6 -3 8 -2 3 2 -4 5
0 17 10 27 19 22 15 30 -10 17z"/>
</g>
</svg>
